<svg width="277" height="251" viewBox="0 0 277 251" fill="none" xmlns="http://www.w3.org/2000/svg">
<path fill-rule="evenodd" clip-rule="evenodd" d="M143.211 6.18067C162.802 14.1513 165.942 43.0447 184.404 53.3619C201.242 62.7711 225.076 50.0706 241.061 60.862C256.886 71.5453 267.294 91.1883 268.634 110.223C269.969 129.203 247.641 143.755 248.231 162.773C249.099 190.754 290.072 220.03 272.722 242.012C255.43 263.92 217.962 239.263 190.195 236.3C174.191 234.593 159.3 228.603 143.211 228.195C127.618 227.798 112.613 237.215 97.3628 233.942C81.1292 230.457 63.8775 223.149 54.8481 209.227C45.785 195.253 57.2529 174.941 49.527 160.187C38.1844 138.527 -7.27099 129.402 0.999182 106.395C9.92025 81.5772 59.22 105.614 76.3542 85.5564C92.6067 66.5307 65.7998 30.8056 81.9194 11.6674C95.2943 -4.21201 123.972 -1.64631 143.211 6.18067Z" fill="#22DEA6"/>
</svg>