<svg width="219" height="217" viewBox="0 0 219 217" fill="none" xmlns="http://www.w3.org/2000/svg">
<path fill-rule="evenodd" clip-rule="evenodd" d="M109.711 0.618034C130.924 -3.97167 150.048 17.9577 161.842 34.7701C171.905 49.1132 159.266 69.7565 168.574 84.5218C179.634 102.064 212.33 103.781 217.737 123.429C222.908 142.221 211.669 165.717 193.74 175.973C175.404 186.462 150.507 166.468 130.284 173.453C107.159 181.44 99.8209 219.12 75.229 216.906C52.588 214.868 51.4734 182.805 39.1717 165.25C28.9553 150.671 14.4649 139.061 9.04315 122.458C3.03649 104.065 -6.67091 80.7724 6.77956 66.0606C21.1592 50.3325 52.9117 66.0527 71.3035 54.3594C90.8921 41.9052 86.5139 5.63702 109.711 0.618034Z" fill="#64D261"/>
</svg>

